<mxfile host="app.diagrams.net" modified="2023-08-17T15:02:56.215Z" agent="5.0 (Macintosh; Intel Mac OS X 10_15_7) AppleWebKit/537.36 (KHTML, like Gecko) Chrome/115.0.0.0 Safari/537.36" etag="a5ccwgtBkKxOvWyLgFUr" version="17.1.0" type="github">
  <diagram id="KZ_TLIkIs8fwgdtM64H9" name="Page-1">
    <mxGraphModel dx="1426" dy="820" grid="1" gridSize="10" guides="1" tooltips="1" connect="1" arrows="1" fold="1" page="1" pageScale="1" pageWidth="827" pageHeight="1169" math="0" shadow="0">
      <root>
        <mxCell id="0" />
        <mxCell id="1" parent="0" />
        <mxCell id="rCfFXvJegGpF5xqkFeD4-15" value="" style="rounded=0;whiteSpace=wrap;html=1;" parent="1" vertex="1">
          <mxGeometry x="190" y="260" width="710" height="670" as="geometry" />
        </mxCell>
        <mxCell id="rCfFXvJegGpF5xqkFeD4-41" style="edgeStyle=orthogonalEdgeStyle;rounded=0;orthogonalLoop=1;jettySize=auto;html=1;" parent="1" source="rCfFXvJegGpF5xqkFeD4-16" target="rCfFXvJegGpF5xqkFeD4-24" edge="1">
          <mxGeometry relative="1" as="geometry" />
        </mxCell>
        <mxCell id="rCfFXvJegGpF5xqkFeD4-43" style="edgeStyle=orthogonalEdgeStyle;rounded=0;orthogonalLoop=1;jettySize=auto;html=1;exitX=1;exitY=0;exitDx=0;exitDy=0;" parent="1" source="rCfFXvJegGpF5xqkFeD4-16" target="rCfFXvJegGpF5xqkFeD4-20" edge="1">
          <mxGeometry relative="1" as="geometry" />
        </mxCell>
        <mxCell id="rCfFXvJegGpF5xqkFeD4-16" value="Training type" style="ellipse;whiteSpace=wrap;html=1;" parent="1" vertex="1">
          <mxGeometry x="290" y="535" width="140" height="80" as="geometry" />
        </mxCell>
        <mxCell id="rCfFXvJegGpF5xqkFeD4-17" value="Training Schedule&amp;nbsp;" style="ellipse;whiteSpace=wrap;html=1;" parent="1" vertex="1">
          <mxGeometry x="520" y="699" width="140" height="80" as="geometry" />
        </mxCell>
        <mxCell id="rCfFXvJegGpF5xqkFeD4-18" value="workout database" style="ellipse;whiteSpace=wrap;html=1;" parent="1" vertex="1">
          <mxGeometry x="720" y="440" width="140" height="80" as="geometry" />
        </mxCell>
        <mxCell id="rCfFXvJegGpF5xqkFeD4-19" value="Email/Password" style="ellipse;whiteSpace=wrap;html=1;" parent="1" vertex="1">
          <mxGeometry x="570" y="420" width="120" height="70" as="geometry" />
        </mxCell>
        <mxCell id="rCfFXvJegGpF5xqkFeD4-44" style="edgeStyle=orthogonalEdgeStyle;rounded=0;orthogonalLoop=1;jettySize=auto;html=1;entryX=0.5;entryY=0;entryDx=0;entryDy=0;" parent="1" source="rCfFXvJegGpF5xqkFeD4-20" target="rCfFXvJegGpF5xqkFeD4-17" edge="1">
          <mxGeometry relative="1" as="geometry" />
        </mxCell>
        <mxCell id="rCfFXvJegGpF5xqkFeD4-20" value="Training Plans" style="ellipse;whiteSpace=wrap;html=1;" parent="1" vertex="1">
          <mxGeometry x="490" y="570" width="140" height="80" as="geometry" />
        </mxCell>
        <mxCell id="rCfFXvJegGpF5xqkFeD4-21" value="Login using google" style="ellipse;whiteSpace=wrap;html=1;" parent="1" vertex="1">
          <mxGeometry x="400" y="430" width="120" height="60" as="geometry" />
        </mxCell>
        <mxCell id="rCfFXvJegGpF5xqkFeD4-22" value="Authorisation/Authentication" style="ellipse;whiteSpace=wrap;html=1;" parent="1" vertex="1">
          <mxGeometry x="460" y="260" width="160" height="90" as="geometry" />
        </mxCell>
        <mxCell id="rCfFXvJegGpF5xqkFeD4-23" value="Login" style="ellipse;whiteSpace=wrap;html=1;" parent="1" vertex="1">
          <mxGeometry x="250" y="270" width="140" height="80" as="geometry" />
        </mxCell>
        <mxCell id="rCfFXvJegGpF5xqkFeD4-35" style="edgeStyle=orthogonalEdgeStyle;rounded=0;orthogonalLoop=1;jettySize=auto;html=1;entryX=0.007;entryY=0.388;entryDx=0;entryDy=0;entryPerimeter=0;" parent="1" source="rCfFXvJegGpF5xqkFeD4-24" target="rCfFXvJegGpF5xqkFeD4-23" edge="1">
          <mxGeometry relative="1" as="geometry" />
        </mxCell>
        <mxCell id="rCfFXvJegGpF5xqkFeD4-24" value="Customer" style="shape=umlActor;verticalLabelPosition=bottom;verticalAlign=top;html=1;" parent="1" vertex="1">
          <mxGeometry x="90" y="440" width="60" height="130" as="geometry" />
        </mxCell>
        <mxCell id="rCfFXvJegGpF5xqkFeD4-45" style="edgeStyle=orthogonalEdgeStyle;rounded=0;orthogonalLoop=1;jettySize=auto;html=1;entryX=0.971;entryY=0.681;entryDx=0;entryDy=0;entryPerimeter=0;" parent="1" source="rCfFXvJegGpF5xqkFeD4-42" target="rCfFXvJegGpF5xqkFeD4-18" edge="1">
          <mxGeometry relative="1" as="geometry" />
        </mxCell>
        <mxCell id="XjJdoc15v5sWLhBRmmh4-8" style="edgeStyle=orthogonalEdgeStyle;rounded=0;orthogonalLoop=1;jettySize=auto;html=1;exitX=0;exitY=1;exitDx=0;exitDy=0;exitPerimeter=0;" edge="1" parent="1" source="rCfFXvJegGpF5xqkFeD4-42" target="XjJdoc15v5sWLhBRmmh4-7">
          <mxGeometry relative="1" as="geometry" />
        </mxCell>
        <mxCell id="XjJdoc15v5sWLhBRmmh4-9" style="edgeStyle=orthogonalEdgeStyle;rounded=0;orthogonalLoop=1;jettySize=auto;html=1;" edge="1" parent="1" source="rCfFXvJegGpF5xqkFeD4-42" target="rCfFXvJegGpF5xqkFeD4-20">
          <mxGeometry relative="1" as="geometry" />
        </mxCell>
        <mxCell id="XjJdoc15v5sWLhBRmmh4-11" style="edgeStyle=orthogonalEdgeStyle;rounded=0;orthogonalLoop=1;jettySize=auto;html=1;entryX=1;entryY=0.5;entryDx=0;entryDy=0;" edge="1" parent="1" source="rCfFXvJegGpF5xqkFeD4-42" target="XjJdoc15v5sWLhBRmmh4-10">
          <mxGeometry relative="1" as="geometry" />
        </mxCell>
        <mxCell id="rCfFXvJegGpF5xqkFeD4-42" value="App Admin" style="shape=umlActor;verticalLabelPosition=bottom;verticalAlign=top;html=1;" parent="1" vertex="1">
          <mxGeometry x="950" y="570" width="30" height="60" as="geometry" />
        </mxCell>
        <mxCell id="rCfFXvJegGpF5xqkFeD4-47" value="&amp;lt;&amp;lt;includes&amp;gt;&amp;gt;" style="endArrow=open;endSize=12;dashed=1;html=1;rounded=0;entryX=0;entryY=0;entryDx=0;entryDy=0;" parent="1" target="rCfFXvJegGpF5xqkFeD4-22" edge="1">
          <mxGeometry width="160" relative="1" as="geometry">
            <mxPoint x="390" y="309.5" as="sourcePoint" />
            <mxPoint x="550" y="309.5" as="targetPoint" />
          </mxGeometry>
        </mxCell>
        <mxCell id="rCfFXvJegGpF5xqkFeD4-49" value="Extends" style="endArrow=block;endSize=16;endFill=0;html=1;rounded=0;entryX=0.625;entryY=0.983;entryDx=0;entryDy=0;entryPerimeter=0;exitX=0.5;exitY=0;exitDx=0;exitDy=0;" parent="1" source="rCfFXvJegGpF5xqkFeD4-21" target="rCfFXvJegGpF5xqkFeD4-22" edge="1">
          <mxGeometry width="160" relative="1" as="geometry">
            <mxPoint x="420" y="380" as="sourcePoint" />
            <mxPoint x="580" y="380" as="targetPoint" />
          </mxGeometry>
        </mxCell>
        <mxCell id="rCfFXvJegGpF5xqkFeD4-50" value="Extends" style="endArrow=block;endSize=16;endFill=0;html=1;rounded=0;exitX=0.5;exitY=0;exitDx=0;exitDy=0;" parent="1" source="rCfFXvJegGpF5xqkFeD4-19" edge="1">
          <mxGeometry width="160" relative="1" as="geometry">
            <mxPoint x="470" y="440" as="sourcePoint" />
            <mxPoint x="560" y="350" as="targetPoint" />
          </mxGeometry>
        </mxCell>
        <mxCell id="XjJdoc15v5sWLhBRmmh4-5" style="edgeStyle=orthogonalEdgeStyle;rounded=0;orthogonalLoop=1;jettySize=auto;html=1;exitX=0;exitY=0;exitDx=0;exitDy=0;entryX=0.733;entryY=0.808;entryDx=0;entryDy=0;entryPerimeter=0;" edge="1" parent="1" source="XjJdoc15v5sWLhBRmmh4-2" target="rCfFXvJegGpF5xqkFeD4-24">
          <mxGeometry relative="1" as="geometry" />
        </mxCell>
        <mxCell id="XjJdoc15v5sWLhBRmmh4-6" style="edgeStyle=orthogonalEdgeStyle;rounded=0;orthogonalLoop=1;jettySize=auto;html=1;exitX=1;exitY=0.5;exitDx=0;exitDy=0;entryX=0;entryY=0.5;entryDx=0;entryDy=0;" edge="1" parent="1" source="XjJdoc15v5sWLhBRmmh4-2" target="XjJdoc15v5sWLhBRmmh4-3">
          <mxGeometry relative="1" as="geometry" />
        </mxCell>
        <mxCell id="XjJdoc15v5sWLhBRmmh4-2" value="Start training&amp;nbsp;" style="ellipse;whiteSpace=wrap;html=1;" vertex="1" parent="1">
          <mxGeometry x="360" y="790" width="140" height="70" as="geometry" />
        </mxCell>
        <mxCell id="XjJdoc15v5sWLhBRmmh4-3" value="Stop training" style="ellipse;whiteSpace=wrap;html=1;" vertex="1" parent="1">
          <mxGeometry x="550" y="800" width="140" height="70" as="geometry" />
        </mxCell>
        <mxCell id="XjJdoc15v5sWLhBRmmh4-7" value="Training history&amp;nbsp;" style="ellipse;whiteSpace=wrap;html=1;" vertex="1" parent="1">
          <mxGeometry x="720" y="709" width="140" height="70" as="geometry" />
        </mxCell>
        <mxCell id="XjJdoc15v5sWLhBRmmh4-10" value="Save training" style="ellipse;whiteSpace=wrap;html=1;" vertex="1" parent="1">
          <mxGeometry x="740" y="850" width="140" height="70" as="geometry" />
        </mxCell>
      </root>
    </mxGraphModel>
  </diagram>
</mxfile>
